<svg xmlns="http://www.w3.org/2000/svg" viewBox="0 0 150 90"><path d="M51,0V90H99V0ZM0,0V90H48V0ZM102,0V90h48V0Z" fill="#e5e5e5"/><path d="M25.8 40.5h.2v9h-1.8v-6.9l-2.1.7v-1.5zM76.3 46a7.5 7.5 0 0 0 1.2-1.6 3 3 0 0 0 .3-1.3 2.3 2.3 0 0 0-.8-1.9 3.2 3.2 0 0 0-2.1-.7 3.3 3.3 0 0 0-1.6.4 2.7 2.7 0 0 0-1.1 1.1 2.9 2.9 0 0 0-.4 1.5h1.8a1.6 1.6 0 0 1 .3-1.1 1.2 1.2 0 0 1 .9-.4 1.1 1.1 0 0 1 .9.3 1.4 1.4 0 0 1 .3.9 1.8 1.8 0 0 1-.3.9l-.9 1.1-2.8 3.1v1.2h6.1v-1.4h-3.8zm52.3-.3a2.2 2.2 0 0 0-1.1-.8 2.4 2.4 0 0 0 1-.8 1.8 1.8 0 0 0 .4-1.1 2.3 2.3 0 0 0-.8-1.8 3.3 3.3 0 0 0-2.2-.7 3.5 3.5 0 0 0-1.5.3 2.5 2.5 0 0 0-1 .9 2.1 2.1 0 0 0-.4 1.2h1.7a.9.9 0 0 1 .3-.7 1.3 1.3 0 0 1 .8-.3 1.2 1.2 0 0 1 .9.3 1.1 1.1 0 0 1 .3.8 1.2 1.2 0 0 1-.3.9 1.3 1.3 0 0 1-1 .3h-.9v1.4h.9q1.4 0 1.4 1.3a1.1 1.1 0 0 1-.4.9 1.5 1.5 0 0 1-1.9 0 1 1 0 0 1-.4-.8H123a2.3 2.3 0 0 0 .8 1.8 3.2 3.2 0 0 0 2.1.7 3.4 3.4 0 0 0 2.3-.7 2.3 2.3 0 0 0 .9-1.9 2.2 2.2 0 0 0-.4-1.2z" fill="#657575"/></svg>