<svg xmlns="http://www.w3.org/2000/svg" viewBox="0 0 150 90"><path d="M38.3,0V90H73.5V0ZM76.5,0V90h35.3V0ZM0,0V90H35.3V0ZM114.8,0V90H150V0Z" fill="#e5e5e5"/><path d="M15.7 41.8v1.5l2.1-.7v6.9h1.8v-9h-.2l-3.7 1.3zM57.3 46a7.5 7.5 0 0 0 1.2-1.6 3 3 0 0 0 .3-1.3 2.3 2.3 0 0 0-.8-1.9 3.2 3.2 0 0 0-2.1-.7 3.3 3.3 0 0 0-1.6.4 2.7 2.7 0 0 0-1.1 1.1 2.9 2.9 0 0 0-.4 1.5h1.8a1.6 1.6 0 0 1 .3-1.1 1.2 1.2 0 0 1 .9-.4 1.1 1.1 0 0 1 .9.3 1.4 1.4 0 0 1 .3.9 1.8 1.8 0 0 1-.3.9l-.9 1.1-2.8 3.1v1.2h6.1v-1.4h-3.8zm38.2-1.1a2.4 2.4 0 0 0 1-.8 1.8 1.8 0 0 0 .4-1.1 2.3 2.3 0 0 0-.8-1.8 3.3 3.3 0 0 0-2.2-.7 3.5 3.5 0 0 0-1.5.3 2.5 2.5 0 0 0-1 .9 2.1 2.1 0 0 0-.4 1.2h1.7a.9.9 0 0 1 .3-.7 1.3 1.3 0 0 1 .8-.3 1.2 1.2 0 0 1 .9.3 1.1 1.1 0 0 1 .3.8 1.2 1.2 0 0 1-.3.9 1.3 1.3 0 0 1-1 .3h-.9v1.4h.9q1.4 0 1.4 1.3a1.1 1.1 0 0 1-.4.9 1.5 1.5 0 0 1-1.9 0 1 1 0 0 1-.4-.8h-1.5a2.3 2.3 0 0 0 .8 1.8 3.2 3.2 0 0 0 2.1.7 3.4 3.4 0 0 0 2.3-.7 2.3 2.3 0 0 0 .9-1.9 2.2 2.2 0 0 0-.4-1.3 2.2 2.2 0 0 0-1.1-.7zm39.1 1.2v-5.6h-1.8l-3.8 5.9v1.1h3.7v1.9h1.8v-1.8h1v-1.5zm-1.8 0h-2l1.9-3v3z" fill="#657575"/></svg>